<svg xmlns="http://www.w3.org/2000/svg" viewBox="0 0 1280 1280" width="1280" height="1280">
  <rect width="1280" height="1280" fill="#20251d"/>
  <rect x="0" y="0" width="80" height="80" fill="#f0d9b5"/>
  <rect x="80" y="0" width="80" height="80" fill="#78965f"/>
  <rect x="160" y="0" width="80" height="80" fill="#f0d9b5"/>
  <rect x="240" y="0" width="80" height="80" fill="#78965f"/>
  <rect x="320" y="0" width="80" height="80" fill="#f0d9b5"/>
  <rect x="400" y="0" width="80" height="80" fill="#78965f"/>
  <rect x="480" y="0" width="80" height="80" fill="#f0d9b5"/>
  <rect x="560" y="0" width="80" height="80" fill="#78965f"/>
  <rect x="640" y="0" width="80" height="80" fill="#f0d9b5"/>
  <rect x="720" y="0" width="80" height="80" fill="#78965f"/>
  <rect x="800" y="0" width="80" height="80" fill="#f0d9b5"/>
  <rect x="880" y="0" width="80" height="80" fill="#78965f"/>
  <rect x="960" y="0" width="80" height="80" fill="#f0d9b5"/>
  <rect x="1040" y="0" width="80" height="80" fill="#78965f"/>
  <rect x="1120" y="0" width="80" height="80" fill="#f0d9b5"/>
  <rect x="1200" y="0" width="80" height="80" fill="#78965f"/>
  <rect x="0" y="80" width="80" height="80" fill="#78965f"/>
  <rect x="80" y="80" width="80" height="80" fill="#f0d9b5"/>
  <rect x="160" y="80" width="80" height="80" fill="#78965f"/>
  <rect x="240" y="80" width="80" height="80" fill="#f0d9b5"/>
  <rect x="320" y="80" width="80" height="80" fill="#78965f"/>
  <rect x="400" y="80" width="80" height="80" fill="#f0d9b5"/>
  <rect x="480" y="80" width="80" height="80" fill="#78965f"/>
  <rect x="560" y="80" width="80" height="80" fill="#f0d9b5"/>
  <rect x="640" y="80" width="80" height="80" fill="#78965f"/>
  <rect x="720" y="80" width="80" height="80" fill="#f0d9b5"/>
  <rect x="800" y="80" width="80" height="80" fill="#78965f"/>
  <rect x="880" y="80" width="80" height="80" fill="#f0d9b5"/>
  <rect x="960" y="80" width="80" height="80" fill="#78965f"/>
  <rect x="1040" y="80" width="80" height="80" fill="#f0d9b5"/>
  <rect x="1120" y="80" width="80" height="80" fill="#78965f"/>
  <rect x="1200" y="80" width="80" height="80" fill="#f0d9b5"/>
  <rect x="0" y="160" width="80" height="80" fill="#f0d9b5"/>
  <rect x="80" y="160" width="80" height="80" fill="#78965f"/>
  <rect x="160" y="160" width="80" height="80" fill="#f0d9b5"/>
  <rect x="240" y="160" width="80" height="80" fill="#78965f"/>
  <rect x="320" y="160" width="80" height="80" fill="#f0d9b5"/>
  <rect x="400" y="160" width="80" height="80" fill="#78965f"/>
  <rect x="480" y="160" width="80" height="80" fill="#f0d9b5"/>
  <rect x="560" y="160" width="80" height="80" fill="#78965f"/>
  <rect x="640" y="160" width="80" height="80" fill="#f0d9b5"/>
  <rect x="720" y="160" width="80" height="80" fill="#78965f"/>
  <rect x="800" y="160" width="80" height="80" fill="#f0d9b5"/>
  <rect x="880" y="160" width="80" height="80" fill="#78965f"/>
  <rect x="960" y="160" width="80" height="80" fill="#f0d9b5"/>
  <rect x="1040" y="160" width="80" height="80" fill="#78965f"/>
  <rect x="1120" y="160" width="80" height="80" fill="#f0d9b5"/>
  <rect x="1200" y="160" width="80" height="80" fill="#78965f"/>
  <rect x="0" y="240" width="80" height="80" fill="#78965f"/>
  <rect x="80" y="240" width="80" height="80" fill="#f0d9b5"/>
  <rect x="160" y="240" width="80" height="80" fill="#78965f"/>
  <rect x="240" y="240" width="80" height="80" fill="#f0d9b5"/>
  <rect x="320" y="240" width="80" height="80" fill="#78965f"/>
  <rect x="400" y="240" width="80" height="80" fill="#f0d9b5"/>
  <rect x="480" y="240" width="80" height="80" fill="#78965f"/>
  <rect x="560" y="240" width="80" height="80" fill="#f0d9b5"/>
  <rect x="640" y="240" width="80" height="80" fill="#78965f"/>
  <rect x="720" y="240" width="80" height="80" fill="#f0d9b5"/>
  <rect x="800" y="240" width="80" height="80" fill="#78965f"/>
  <rect x="880" y="240" width="80" height="80" fill="#f0d9b5"/>
  <rect x="960" y="240" width="80" height="80" fill="#78965f"/>
  <rect x="1040" y="240" width="80" height="80" fill="#f0d9b5"/>
  <rect x="1120" y="240" width="80" height="80" fill="#78965f"/>
  <rect x="1200" y="240" width="80" height="80" fill="#f0d9b5"/>
  <rect x="0" y="320" width="80" height="80" fill="#f0d9b5"/>
  <rect x="80" y="320" width="80" height="80" fill="#78965f"/>
  <rect x="160" y="320" width="80" height="80" fill="#f0d9b5"/>
  <rect x="240" y="320" width="80" height="80" fill="#78965f"/>
  <rect x="320" y="320" width="80" height="80" fill="#f0d9b5"/>
  <rect x="400" y="320" width="80" height="80" fill="#78965f"/>
  <rect x="480" y="320" width="80" height="80" fill="#f0d9b5"/>
  <rect x="560" y="320" width="80" height="80" fill="#78965f"/>
  <rect x="640" y="320" width="80" height="80" fill="#f0d9b5"/>
  <rect x="720" y="320" width="80" height="80" fill="#78965f"/>
  <rect x="800" y="320" width="80" height="80" fill="#f0d9b5"/>
  <rect x="880" y="320" width="80" height="80" fill="#78965f"/>
  <rect x="960" y="320" width="80" height="80" fill="#f0d9b5"/>
  <rect x="1040" y="320" width="80" height="80" fill="#78965f"/>
  <rect x="1120" y="320" width="80" height="80" fill="#f0d9b5"/>
  <rect x="1200" y="320" width="80" height="80" fill="#78965f"/>
  <rect x="0" y="400" width="80" height="80" fill="#78965f"/>
  <rect x="80" y="400" width="80" height="80" fill="#f0d9b5"/>
  <rect x="160" y="400" width="80" height="80" fill="#78965f"/>
  <rect x="240" y="400" width="80" height="80" fill="#f0d9b5"/>
  <rect x="320" y="400" width="80" height="80" fill="#78965f"/>
  <rect x="400" y="400" width="80" height="80" fill="#f0d9b5"/>
  <rect x="480" y="400" width="80" height="80" fill="#78965f"/>
  <rect x="560" y="400" width="80" height="80" fill="#f0d9b5"/>
  <rect x="640" y="400" width="80" height="80" fill="#78965f"/>
  <rect x="720" y="400" width="80" height="80" fill="#f0d9b5"/>
  <rect x="800" y="400" width="80" height="80" fill="#78965f"/>
  <rect x="880" y="400" width="80" height="80" fill="#f0d9b5"/>
  <rect x="960" y="400" width="80" height="80" fill="#78965f"/>
  <rect x="1040" y="400" width="80" height="80" fill="#f0d9b5"/>
  <rect x="1120" y="400" width="80" height="80" fill="#78965f"/>
  <rect x="1200" y="400" width="80" height="80" fill="#f0d9b5"/>
  <rect x="0" y="480" width="80" height="80" fill="#f0d9b5"/>
  <rect x="80" y="480" width="80" height="80" fill="#78965f"/>
  <rect x="160" y="480" width="80" height="80" fill="#f0d9b5"/>
  <rect x="240" y="480" width="80" height="80" fill="#78965f"/>
  <rect x="320" y="480" width="80" height="80" fill="#f0d9b5"/>
  <rect x="400" y="480" width="80" height="80" fill="#78965f"/>
  <rect x="480" y="480" width="80" height="80" fill="#f0d9b5"/>
  <rect x="560" y="480" width="80" height="80" fill="#78965f"/>
  <rect x="640" y="480" width="80" height="80" fill="#f0d9b5"/>
  <rect x="720" y="480" width="80" height="80" fill="#78965f"/>
  <rect x="800" y="480" width="80" height="80" fill="#f0d9b5"/>
  <rect x="880" y="480" width="80" height="80" fill="#78965f"/>
  <rect x="960" y="480" width="80" height="80" fill="#f0d9b5"/>
  <rect x="1040" y="480" width="80" height="80" fill="#78965f"/>
  <rect x="1120" y="480" width="80" height="80" fill="#f0d9b5"/>
  <rect x="1200" y="480" width="80" height="80" fill="#78965f"/>
  <rect x="0" y="560" width="80" height="80" fill="#78965f"/>
  <rect x="80" y="560" width="80" height="80" fill="#f0d9b5"/>
  <rect x="160" y="560" width="80" height="80" fill="#78965f"/>
  <rect x="240" y="560" width="80" height="80" fill="#f0d9b5"/>
  <rect x="320" y="560" width="80" height="80" fill="#78965f"/>
  <rect x="400" y="560" width="80" height="80" fill="#f0d9b5"/>
  <rect x="480" y="560" width="80" height="80" fill="#78965f"/>
  <rect x="560" y="560" width="80" height="80" fill="#f0d9b5"/>
  <rect x="640" y="560" width="80" height="80" fill="#78965f"/>
  <rect x="720" y="560" width="80" height="80" fill="#f0d9b5"/>
  <rect x="800" y="560" width="80" height="80" fill="#78965f"/>
  <rect x="880" y="560" width="80" height="80" fill="#f0d9b5"/>
  <rect x="960" y="560" width="80" height="80" fill="#78965f"/>
  <rect x="1040" y="560" width="80" height="80" fill="#f0d9b5"/>
  <rect x="1120" y="560" width="80" height="80" fill="#78965f"/>
  <rect x="1200" y="560" width="80" height="80" fill="#f0d9b5"/>
  <rect x="0" y="640" width="80" height="80" fill="#f0d9b5"/>
  <rect x="80" y="640" width="80" height="80" fill="#78965f"/>
  <rect x="160" y="640" width="80" height="80" fill="#f0d9b5"/>
  <rect x="240" y="640" width="80" height="80" fill="#78965f"/>
  <rect x="320" y="640" width="80" height="80" fill="#f0d9b5"/>
  <rect x="400" y="640" width="80" height="80" fill="#78965f"/>
  <rect x="480" y="640" width="80" height="80" fill="#f0d9b5"/>
  <rect x="560" y="640" width="80" height="80" fill="#78965f"/>
  <rect x="640" y="640" width="80" height="80" fill="#f0d9b5"/>
  <rect x="720" y="640" width="80" height="80" fill="#78965f"/>
  <rect x="800" y="640" width="80" height="80" fill="#f0d9b5"/>
  <rect x="880" y="640" width="80" height="80" fill="#78965f"/>
  <rect x="960" y="640" width="80" height="80" fill="#f0d9b5"/>
  <rect x="1040" y="640" width="80" height="80" fill="#78965f"/>
  <rect x="1120" y="640" width="80" height="80" fill="#f0d9b5"/>
  <rect x="1200" y="640" width="80" height="80" fill="#78965f"/>
  <rect x="0" y="720" width="80" height="80" fill="#78965f"/>
  <rect x="80" y="720" width="80" height="80" fill="#f0d9b5"/>
  <rect x="160" y="720" width="80" height="80" fill="#78965f"/>
  <rect x="240" y="720" width="80" height="80" fill="#f0d9b5"/>
  <rect x="320" y="720" width="80" height="80" fill="#78965f"/>
  <rect x="400" y="720" width="80" height="80" fill="#f0d9b5"/>
  <rect x="480" y="720" width="80" height="80" fill="#78965f"/>
  <rect x="560" y="720" width="80" height="80" fill="#f0d9b5"/>
  <rect x="640" y="720" width="80" height="80" fill="#78965f"/>
  <rect x="720" y="720" width="80" height="80" fill="#f0d9b5"/>
  <rect x="800" y="720" width="80" height="80" fill="#78965f"/>
  <rect x="880" y="720" width="80" height="80" fill="#f0d9b5"/>
  <rect x="960" y="720" width="80" height="80" fill="#78965f"/>
  <rect x="1040" y="720" width="80" height="80" fill="#f0d9b5"/>
  <rect x="1120" y="720" width="80" height="80" fill="#78965f"/>
  <rect x="1200" y="720" width="80" height="80" fill="#f0d9b5"/>
  <rect x="0" y="800" width="80" height="80" fill="#f0d9b5"/>
  <rect x="80" y="800" width="80" height="80" fill="#78965f"/>
  <rect x="160" y="800" width="80" height="80" fill="#f0d9b5"/>
  <rect x="240" y="800" width="80" height="80" fill="#78965f"/>
  <rect x="320" y="800" width="80" height="80" fill="#f0d9b5"/>
  <rect x="400" y="800" width="80" height="80" fill="#78965f"/>
  <rect x="480" y="800" width="80" height="80" fill="#f0d9b5"/>
  <rect x="560" y="800" width="80" height="80" fill="#78965f"/>
  <rect x="640" y="800" width="80" height="80" fill="#f0d9b5"/>
  <rect x="720" y="800" width="80" height="80" fill="#78965f"/>
  <rect x="800" y="800" width="80" height="80" fill="#f0d9b5"/>
  <rect x="880" y="800" width="80" height="80" fill="#78965f"/>
  <rect x="960" y="800" width="80" height="80" fill="#f0d9b5"/>
  <rect x="1040" y="800" width="80" height="80" fill="#78965f"/>
  <rect x="1120" y="800" width="80" height="80" fill="#f0d9b5"/>
  <rect x="1200" y="800" width="80" height="80" fill="#78965f"/>
  <rect x="0" y="880" width="80" height="80" fill="#78965f"/>
  <rect x="80" y="880" width="80" height="80" fill="#f0d9b5"/>
  <rect x="160" y="880" width="80" height="80" fill="#78965f"/>
  <rect x="240" y="880" width="80" height="80" fill="#f0d9b5"/>
  <rect x="320" y="880" width="80" height="80" fill="#78965f"/>
  <rect x="400" y="880" width="80" height="80" fill="#f0d9b5"/>
  <rect x="480" y="880" width="80" height="80" fill="#78965f"/>
  <rect x="560" y="880" width="80" height="80" fill="#f0d9b5"/>
  <rect x="640" y="880" width="80" height="80" fill="#78965f"/>
  <rect x="720" y="880" width="80" height="80" fill="#f0d9b5"/>
  <rect x="800" y="880" width="80" height="80" fill="#78965f"/>
  <rect x="880" y="880" width="80" height="80" fill="#f0d9b5"/>
  <rect x="960" y="880" width="80" height="80" fill="#78965f"/>
  <rect x="1040" y="880" width="80" height="80" fill="#f0d9b5"/>
  <rect x="1120" y="880" width="80" height="80" fill="#78965f"/>
  <rect x="1200" y="880" width="80" height="80" fill="#f0d9b5"/>
  <rect x="0" y="960" width="80" height="80" fill="#f0d9b5"/>
  <rect x="80" y="960" width="80" height="80" fill="#78965f"/>
  <rect x="160" y="960" width="80" height="80" fill="#f0d9b5"/>
  <rect x="240" y="960" width="80" height="80" fill="#78965f"/>
  <rect x="320" y="960" width="80" height="80" fill="#f0d9b5"/>
  <rect x="400" y="960" width="80" height="80" fill="#78965f"/>
  <rect x="480" y="960" width="80" height="80" fill="#f0d9b5"/>
  <rect x="560" y="960" width="80" height="80" fill="#78965f"/>
  <rect x="640" y="960" width="80" height="80" fill="#f0d9b5"/>
  <rect x="720" y="960" width="80" height="80" fill="#78965f"/>
  <rect x="800" y="960" width="80" height="80" fill="#f0d9b5"/>
  <rect x="880" y="960" width="80" height="80" fill="#78965f"/>
  <rect x="960" y="960" width="80" height="80" fill="#f0d9b5"/>
  <rect x="1040" y="960" width="80" height="80" fill="#78965f"/>
  <rect x="1120" y="960" width="80" height="80" fill="#f0d9b5"/>
  <rect x="1200" y="960" width="80" height="80" fill="#78965f"/>
  <rect x="0" y="1040" width="80" height="80" fill="#78965f"/>
  <rect x="80" y="1040" width="80" height="80" fill="#f0d9b5"/>
  <rect x="160" y="1040" width="80" height="80" fill="#78965f"/>
  <rect x="240" y="1040" width="80" height="80" fill="#f0d9b5"/>
  <rect x="320" y="1040" width="80" height="80" fill="#78965f"/>
  <rect x="400" y="1040" width="80" height="80" fill="#f0d9b5"/>
  <rect x="480" y="1040" width="80" height="80" fill="#78965f"/>
  <rect x="560" y="1040" width="80" height="80" fill="#f0d9b5"/>
  <rect x="640" y="1040" width="80" height="80" fill="#78965f"/>
  <rect x="720" y="1040" width="80" height="80" fill="#f0d9b5"/>
  <rect x="800" y="1040" width="80" height="80" fill="#78965f"/>
  <rect x="880" y="1040" width="80" height="80" fill="#f0d9b5"/>
  <rect x="960" y="1040" width="80" height="80" fill="#78965f"/>
  <rect x="1040" y="1040" width="80" height="80" fill="#f0d9b5"/>
  <rect x="1120" y="1040" width="80" height="80" fill="#78965f"/>
  <rect x="1200" y="1040" width="80" height="80" fill="#f0d9b5"/>
  <rect x="0" y="1120" width="80" height="80" fill="#f0d9b5"/>
  <rect x="80" y="1120" width="80" height="80" fill="#78965f"/>
  <rect x="160" y="1120" width="80" height="80" fill="#f0d9b5"/>
  <rect x="240" y="1120" width="80" height="80" fill="#78965f"/>
  <rect x="320" y="1120" width="80" height="80" fill="#f0d9b5"/>
  <rect x="400" y="1120" width="80" height="80" fill="#78965f"/>
  <rect x="480" y="1120" width="80" height="80" fill="#f0d9b5"/>
  <rect x="560" y="1120" width="80" height="80" fill="#78965f"/>
  <rect x="640" y="1120" width="80" height="80" fill="#f0d9b5"/>
  <rect x="720" y="1120" width="80" height="80" fill="#78965f"/>
  <rect x="800" y="1120" width="80" height="80" fill="#f0d9b5"/>
  <rect x="880" y="1120" width="80" height="80" fill="#78965f"/>
  <rect x="960" y="1120" width="80" height="80" fill="#f0d9b5"/>
  <rect x="1040" y="1120" width="80" height="80" fill="#78965f"/>
  <rect x="1120" y="1120" width="80" height="80" fill="#f0d9b5"/>
  <rect x="1200" y="1120" width="80" height="80" fill="#78965f"/>
  <rect x="0" y="1200" width="80" height="80" fill="#78965f"/>
  <rect x="80" y="1200" width="80" height="80" fill="#f0d9b5"/>
  <rect x="160" y="1200" width="80" height="80" fill="#78965f"/>
  <rect x="240" y="1200" width="80" height="80" fill="#f0d9b5"/>
  <rect x="320" y="1200" width="80" height="80" fill="#78965f"/>
  <rect x="400" y="1200" width="80" height="80" fill="#f0d9b5"/>
  <rect x="480" y="1200" width="80" height="80" fill="#78965f"/>
  <rect x="560" y="1200" width="80" height="80" fill="#f0d9b5"/>
  <rect x="640" y="1200" width="80" height="80" fill="#78965f"/>
  <rect x="720" y="1200" width="80" height="80" fill="#f0d9b5"/>
  <rect x="800" y="1200" width="80" height="80" fill="#78965f"/>
  <rect x="880" y="1200" width="80" height="80" fill="#f0d9b5"/>
  <rect x="960" y="1200" width="80" height="80" fill="#78965f"/>
  <rect x="1040" y="1200" width="80" height="80" fill="#f0d9b5"/>
  <rect x="1120" y="1200" width="80" height="80" fill="#78965f"/>
  <rect x="1200" y="1200" width="80" height="80" fill="#f0d9b5"/>
  <path d="M0 0h1280v1280H0z" fill="none" stroke="#20251d" stroke-width="8"/>
  <path d="M80 0v1280M160 0v1280M240 0v1280M320 0v1280M400 0v1280M480 0v1280M560 0v1280M640 0v1280M720 0v1280M800 0v1280M880 0v1280M960 0v1280M1040 0v1280M1120 0v1280M1200 0v1280M0 80h1280M0 160h1280M0 240h1280M0 320h1280M0 400h1280M0 480h1280M0 560h1280M0 640h1280M0 720h1280M0 800h1280M0 880h1280M0 960h1280M0 1040h1280M0 1120h1280M0 1200h1280" fill="none" stroke="#20251d" stroke-width="2" opacity="0.35"/>
</svg>
